<svg id="组件_103_11" data-name="组件 103 – 11" xmlns="http://www.w3.org/2000/svg" width="29.081" height="29" viewBox="0 0 29.081 29">
  <defs>
    <style>
      .cls-1, .cls-2 {
        fill: #f0e7d6;
      }

      .cls-2 {
        font-size: 10px;
        font-family: ArtifaktElement-Bold, Artifakt Element;
        font-weight: 700;
      }
    </style>
  </defs>
  <g id="noun-speed-5214466" transform="translate(-1.16)">
    <g id="组_1741" data-name="组 1741" transform="translate(1.16)">
      <path id="路径_363" data-name="路径 363" class="cls-1" d="M343.079,726.2h0a14.368,14.368,0,0,0-4.794.818l1.069,5.176a10.509,10.509,0,0,1,2.814-.379h.039a10.285,10.285,0,0,1,1.5.11l1.867-5.511a14.4,14.4,0,0,0-2.49-.215Zm-5.8,1.216h0a14.447,14.447,0,0,0-4.886,3.53l2.617,3.655a10.747,10.747,0,0,1,3.319-2.066Zm7.48,4.721h0a10.612,10.612,0,0,1,3.808,1.838h0a10.927,10.927,0,0,1,.9.758l5.367-2.472q-.314-.446-.663-.864h0a14.409,14.409,0,0,0-7.542-4.759Zm-13.071-.349h0a14.349,14.349,0,0,0-2.415,4.688l3.069,1.816a11.157,11.157,0,0,1,1.9-2.926Zm11.375,7.894h0a.9.9,0,0,1,0,1.8h0a.9.9,0,0,1,0-1.8ZM329,737.547h0a14.406,14.406,0,0,0-.326,3.06q0,.555.041,1.1l2.675.4a11.35,11.35,0,0,1,.562-2.816Zm27.3-5.216h0a.631.631,0,0,0-.267.073l-12.1,5.572a2.735,2.735,0,0,0-.872-.142h0a2.741,2.741,0,0,0,0,5.483h0a2.742,2.742,0,0,0,2.688-2.208h0l10.813-7.781a.562.562,0,0,0,.223-.687.53.53,0,0,0-.309-.28h0a.525.525,0,0,0-.176-.029ZM328.839,742.8h0a14.336,14.336,0,0,0,.865,3.165l1.946-.465a11.521,11.521,0,0,1-.287-2.322Zm1.3,4.153h0a14.434,14.434,0,0,0,1.369,2.241l1.128-1.007a11.481,11.481,0,0,1-.7-1.663Zm2.036,3.073h0q.438.506.92.971h0a.6.6,0,0,0,.44.194h0a.6.6,0,0,0,.6-.6h0a.6.6,0,0,0-.138-.382l-.005-.006a11.56,11.56,0,0,1-.8-1.083Z" transform="translate(-328.673 -726.196)"/>
    </g>
  </g>
  <text id="x2" class="cls-2" transform="translate(18.081 25)"><tspan x="0" y="0">x2</tspan></text>
</svg>
